# xmcd
#
# Track frame offsets:
# 150
# 23729
# 37829
# 50503
# 67269
# 82718
# 97569
# 112707
# 137038
# 156393
# 172426
# 186645
# 200999
# 220215
# 243089
# 257566
# 284343
# 298894
# 312316
# 324766
# 333991
# 344737
#
# Disc length: 4754 seconds
#
# Revision: 0
# Processed by: cddbd v1.5.2PL0 Copyright (c) Steve Scherf et al.
# Submitted via: Axialis_AX_CDPlayer 2.6
#
DISCID=4c129016
DTITLE=Tony Joe White - Swamp Music - The Complete Monument Recordings (Disc
DTITLE=\n2 of 4)
DYEAR=1900
DGENRE=
TTITLE0=Elements And Things
TTITLE1=Roosevelt And Ira Lee (Night Of The Mossacin)
TTITLE2=Woodpecker
TTITLE3=Rainy Night In Georgia
TTITLE4=For Le Ann
TTITLE5=Old Man Willis
TTITLE6=Woman With Soul
TTITLE7=I Want You
TTITLE8=I Thought I Knew You Well
TTITLE9=The Migrant
TTITLE10=Watching The Trains Go By (Single Version)
TTITLE11=Old Man Willis (Single Version)
TTITLE12=Funky Fingers
TTITLE13=Soul Britches
TTITLE14=Dusty Marshmallow
TTITLE15=Toil and Trouble
TTITLE16=What Does It Take
TTITLE17=This Guy's In Love With You
TTITLE18=Woodpecker (Alternate Version)
TTITLE19=Laying Out All Night
TTITLE20=I Want Your Sweet Love
TTITLE21=Keep A Movin' Train
EXTD=www.tonyjoewhite.com
EXTT0=
EXTT1=
EXTT2=
EXTT3=
EXTT4=
EXTT5=
EXTT6=
EXTT7=
EXTT8=
EXTT9=
EXTT10=
EXTT11=
EXTT12=
EXTT13=
EXTT14=
EXTT15=
EXTT16=
EXTT17=
EXTT18=
EXTT19=
EXTT20=
EXTT21=
PLAYORDER=
